<svg width="131" height="81" viewBox="0 0 131 81" fill="none" xmlns="http://www.w3.org/2000/svg">
<path d="M37.775 74.167L36.625 80.5932H37.575L37.8312 79.052H39.0812L39.35 80.5932H40.3062L39.1562 74.167H37.775ZM37.9313 78.2032L38.4312 75.2126H38.4875L38.975 78.2032H37.9313ZM42.7188 80.5932H43.6688V75.0739H44.9375V80.5932H45.8812V74.167H42.7188V80.592V80.5932ZM49.45 74.167L48.2938 80.5932H49.2437L49.5063 79.052H50.75L51.0188 80.5932H51.9813L50.825 74.167H49.45ZM49.6063 78.2032L50.1 75.2126H50.1562L50.65 78.2032H49.6063ZM56.9625 74.4132C56.6905 74.2299 56.3647 74.1431 56.0375 74.167H54.3938V80.592H55.3375V78.3882H56.0375C56.3672 78.4122 56.6948 78.319 56.9625 78.1251C57.1761 77.9466 57.3199 77.6985 57.3687 77.4245C57.4389 77.0455 57.4703 76.6604 57.4625 76.2751C57.4724 75.881 57.4389 75.4869 57.3625 75.1001C57.3123 74.8316 57.171 74.5885 56.9625 74.412V74.4132ZM56.4688 77.0607C56.4585 77.1965 56.401 77.3243 56.3063 77.422C56.1826 77.5036 56.0351 77.541 55.8875 77.5282H55.3375V75.0357H55.8875C56.0349 75.0238 56.1822 75.0609 56.3063 75.1414C56.4002 75.2376 56.4577 75.3636 56.4688 75.4976C56.5048 75.7555 56.5195 76.016 56.5125 76.2764C56.5194 76.5382 56.5047 76.8001 56.4688 77.0595V77.0607ZM59.575 75.0432H60.625V80.5932H61.575V75.042H62.625V74.167H59.575V75.042V75.0432ZM65.05 78.342H66.65V77.5101H65.05V78.342ZM72.0813 74.3626C71.7432 74.1527 71.3465 74.0574 70.95 74.0907C70.5555 74.0572 70.1607 74.1526 69.825 74.3626C69.5714 74.5986 69.4191 74.9236 69.4 75.2695C69.2833 76.6744 69.2833 78.0865 69.4 79.4914C69.4187 79.8368 69.5711 80.1614 69.825 80.3964C70.1603 80.6073 70.5554 80.7028 70.95 80.6682C71.3466 80.7026 71.7436 80.6072 72.0813 80.3964C72.3351 80.1614 72.4875 79.8368 72.5062 79.4914C72.6229 78.0865 72.6229 76.6744 72.5062 75.2695C72.4875 74.9232 72.3352 74.5976 72.0813 74.3614V74.3626ZM71.6 79.0789C71.6016 79.2913 71.5408 79.4995 71.425 79.6776C71.2863 79.7738 71.1181 79.8181 70.95 79.8026C70.7837 79.8204 70.6167 79.7758 70.4812 79.6776C70.3626 79.5008 70.3015 79.2917 70.3063 79.0789C70.275 78.7614 70.2562 78.1957 70.2562 77.3782C70.2562 76.5607 70.275 75.997 70.3063 75.6801C70.3017 75.4673 70.3628 75.2582 70.4812 75.0814C70.6165 74.9829 70.7836 74.9383 70.95 74.9564C71.1181 74.9406 71.2864 74.9849 71.425 75.0814C71.5406 75.2596 71.6014 75.4677 71.6 75.6801C71.6312 75.997 71.6438 76.5645 71.6438 77.3782C71.6438 78.192 71.6312 78.7601 71.6 79.0776V79.0789ZM74.7875 75.0432H75.8438V80.5932H76.7937V75.042H77.8438V74.167H74.7875V75.042V75.0432ZM80.2375 80.5932H82.7562V79.7251H81.1937V77.782H82.5625V76.9114H81.1937V75.0364H82.7562V74.167H80.2375V80.592V80.5932ZM94.2812 77.3345C94.2297 77.0615 94.0864 76.8142 93.875 76.6339C93.6075 76.4396 93.2797 76.3466 92.95 76.3714H92.25V74.167H91.3V80.592H92.95C93.2754 80.6172 93.5996 80.5303 93.8688 80.3457C94.0813 80.1719 94.2253 79.9283 94.275 79.6582C94.3514 79.2714 94.3849 78.8774 94.375 78.4832C94.3828 78.0977 94.3514 77.7124 94.2812 77.3332V77.3345ZM93.3812 79.2632C93.3711 79.3986 93.311 79.5254 93.2125 79.6189C93.0912 79.7005 92.9456 79.738 92.8 79.7251H92.25V77.2295H92.8C92.9456 77.2153 93.0916 77.2527 93.2125 77.3351C93.3115 77.4305 93.3716 77.5592 93.3812 77.6964C93.4173 77.9564 93.4319 78.2189 93.425 78.4814C93.4321 78.7423 93.4174 79.0034 93.3812 79.262V79.2632ZM87.5687 74.167H85.675V78.4076C85.6841 78.727 85.6694 79.0466 85.6313 79.3639C85.632 79.4289 85.6163 79.493 85.5858 79.5503C85.5552 79.6077 85.5106 79.6564 85.4562 79.692C85.2922 79.7516 85.1182 79.779 84.9437 79.7726V80.5932C85.3414 80.6125 85.7393 80.5607 86.1188 80.4401C86.2349 80.3757 86.3334 80.2835 86.4053 80.1719C86.4773 80.0602 86.5205 79.9325 86.5312 79.8001C86.6042 79.1892 86.6334 78.5739 86.6187 77.9589V75.0345H87.5687V80.5932H88.5188V74.167H87.5687ZM69.7375 26.4889H61.2625V21.0201H57.9313V34.6901H61.2625V29.222H69.7375V34.6901H73.0625V21.0201H69.7375V26.4889ZM57.9313 17.9795H73.0625V17.3745H57.9313V17.9795ZM65.5 6.58824L57.9313 0.666992V14.337H61.2625V7.37449L65.5 10.692L69.7375 7.37512V14.3376H73.0625V0.666992L65.5 6.58824ZM6.50625 60.2382H6.35L4.31875 48.3564H0.8125V63.782H2.975V51.5645H3.1125L5.2125 63.7845H7.5375L9.63125 51.5645H9.76875V63.7845H11.9813V48.3589H8.5375L6.50625 60.2382ZM14.125 63.782H20.175V61.6964H16.425V57.0345H19.7062V54.947H16.425V50.4426H20.175V48.3589H14.125V63.7845V63.782ZM34.8563 48.3564H32.5312L30.3875 54.8814H29.3625V48.3589H27.0812V54.8839H26.0562L23.9125 48.3589H21.5875L24.2687 55.847L21.5687 63.7845H23.9562L26.0562 57.0589H27.0812V63.7845H29.3625V57.0589H30.3875L32.4875 63.7845H34.8812L32.175 55.847L34.8563 48.3564ZM60.8687 54.9032H57.8313V48.3589H55.55V63.7845H57.8313V57.0807H60.8687V63.7845H63.1438V48.3589H60.8687V54.9057V54.9032ZM67.2312 48.3564L64.4625 63.782H66.7438L67.3688 60.0814H70.3625L71.0125 63.782H73.3063L70.5437 48.3564H67.2312ZM67.6125 58.0439L68.8 50.8695H68.9313L70.1125 58.0439H67.6125ZM80.7937 48.9539C80.1447 48.5111 79.3648 48.3013 78.5813 48.3589H74.625V63.7845H76.9062V58.4926H78.5813C79.3732 58.551 80.1605 58.3298 80.8063 57.8676C81.3105 57.4328 81.6521 56.8395 81.775 56.1851C82.0791 54.3362 82.0749 52.4496 81.7625 50.602C81.6401 49.957 81.2977 49.3745 80.7937 48.9539ZM79.6187 55.3089C79.5917 55.6348 79.45 55.9407 79.2188 56.172C78.9273 56.3705 78.5762 56.4619 78.225 56.4307H76.9062V50.4426H78.225C78.5763 50.4115 78.9275 50.5031 79.2188 50.702C79.4488 50.9299 79.5905 51.2319 79.6187 51.5545C79.7002 52.176 79.7336 52.8028 79.7188 53.4295C79.7329 54.0576 79.6995 54.6858 79.6187 55.3089ZM89.85 48.8295C89.0129 48.4025 88.0866 48.1799 87.1469 48.1799C86.2072 48.1799 85.2808 48.4025 84.4437 48.8295C83.8332 49.3943 83.4657 50.1741 83.4187 51.0045C83.244 52.6875 83.173 54.3797 83.2063 56.0714C83.173 57.7631 83.244 59.4552 83.4187 61.1382C83.4655 61.9687 83.833 62.7485 84.4437 63.3132C85.2808 63.7405 86.2071 63.9632 87.1469 63.9632C88.0866 63.9632 89.013 63.7405 89.85 63.3132C90.4605 62.7477 90.8298 61.9688 90.8812 61.1382C91.0499 59.4548 91.1187 57.7629 91.0875 56.0714C91.1187 54.3798 91.0499 52.6879 90.8812 51.0045C90.8295 50.174 90.4603 49.3952 89.85 48.8295ZM88.7 60.1532C88.7122 60.6651 88.5636 61.1679 88.275 61.5907C87.943 61.8211 87.5394 61.9247 87.1375 61.8826C86.7375 61.9261 86.3353 61.8223 86.0062 61.5907C85.7289 61.1632 85.5853 60.6628 85.5938 60.1532C85.5187 59.3907 85.4812 58.0301 85.4812 56.0714C85.4812 54.1126 85.5187 52.7522 85.5938 51.9901C85.5849 51.4806 85.7286 50.98 86.0062 50.5526C86.3353 50.3209 86.7375 50.2172 87.1375 50.2607C87.5394 50.2187 87.943 50.3223 88.275 50.5526C88.5641 50.9752 88.7128 51.4782 88.7 51.9901C88.775 52.7526 88.8125 54.113 88.8125 56.0714C88.8125 58.0297 88.775 59.3903 88.7 60.1532ZM109.031 54.9032H105.994V48.3589H103.713V63.7845H105.994V57.0807H109.031V63.7845H111.306V48.3589H109.031V54.9057V54.9032ZM115.394 48.3564L112.625 63.782H114.906L115.531 60.0814H118.525L119.169 63.782H121.469L118.7 48.3564H115.394ZM115.775 58.0439L116.962 50.8695H117.094L118.275 58.0439H115.775ZM126.144 48.3564C125.365 48.3015 124.589 48.4988 123.931 48.9189C123.429 49.3132 123.086 49.8745 122.963 50.5007C122.785 51.3896 122.706 52.2952 122.725 53.2014C122.705 54.1356 122.795 55.069 122.994 55.982C123.065 56.3054 123.201 56.6112 123.393 56.8808C123.585 57.1505 123.83 57.3786 124.113 57.5514L122.438 63.7845H124.781L126.188 58.0439H127.912V63.7845H130.188V48.3589H126.144V48.3564ZM127.912 56.0232H126.5C126.151 56.0533 125.801 55.9667 125.506 55.777C125.282 55.564 125.14 55.2784 125.106 54.9707C125.025 54.3911 124.992 53.8058 125.006 53.2207C124.992 52.6436 125.026 52.0662 125.106 51.4945C125.142 51.1847 125.288 50.8982 125.519 50.6882C125.81 50.4996 126.154 50.4118 126.5 50.4382H127.912V56.0214V56.0232ZM50.375 54.8632L48.5188 48.3564H46.2375L49.3438 58.4764L47.8313 63.782H50.1125L54.5063 48.3564H52.225L50.375 54.8632ZM42.7313 48.3564H39.4188L37.0062 61.8076H35.9125V63.782H35.9062V65.7557H38.1875V63.782H43.9562V65.7557H46.2312V63.782H46.2375V61.8076H45.1437L42.7313 48.3564ZM39.2438 61.8076L40.9875 50.8701H41.1187L42.8812 61.8076H39.2438ZM98.8875 48.3564H95.5813L93.1688 61.8076H92.075V63.782H92.0687V65.7557H94.35V63.782H100.119V65.7557H102.394V63.782H102.4V61.8076H101.306L98.8875 48.3564ZM95.4062 61.8076L97.15 50.8701H97.2812L99.0437 61.8076H95.4062Z" fill="white"/>
</svg>
