<svg width="40" height="46" viewBox="0 0 40 46" fill="none" xmlns="http://www.w3.org/2000/svg">
<path d="M20 1.3492C22.5397 1.3492 24.8889 2.9365 25.7143 5.41269L25.8413 5.79364H26.2222H35.5556C37.7143 5.79364 39.4286 7.50793 39.4286 9.66666V40.7778C39.4286 42.9365 37.7143 44.6508 35.5556 44.6508H4.44444C2.28571 44.6508 0.571429 42.9365 0.571429 40.7778V9.66666C0.571429 7.50793 2.28571 5.79364 4.44444 5.79364H14.0952L14.2222 5.41269C15.1111 2.9365 17.4603 1.3492 20 1.3492ZM20 0.777771C17.0794 0.777771 14.6667 2.68253 13.7143 5.22222H4.44444C1.96825 5.22222 0 7.19047 0 9.66666V40.7778C0 43.254 1.96825 45.2222 4.44444 45.2222H35.5556C38.0317 45.2222 40 43.254 40 40.7778V9.66666C40 7.19047 38.0317 5.22222 35.5556 5.22222H26.2857C25.3333 2.68253 22.8571 0.777771 20 0.777771Z" fill="white"/>
<path d="M20.0001 5.7936C20.9524 5.7936 21.6508 6.49201 21.6508 7.44439C21.6508 8.39677 20.9524 9.09518 20.0001 9.09518C19.0477 9.09518 18.3493 8.39677 18.3493 7.44439C18.3493 6.49201 19.0477 5.7936 20.0001 5.7936ZM20.0001 5.22217C18.7937 5.22217 17.7778 6.23804 17.7778 7.44439C17.7778 8.65074 18.7937 9.66661 20.0001 9.66661C21.2064 9.66661 22.2223 8.65074 22.2223 7.44439C22.2223 6.23804 21.2064 5.22217 20.0001 5.22217Z" fill="white"/>
<path d="M19.9998 14.6826C23.3649 14.6826 26.0951 17.4127 26.0951 20.7778C26.0951 24.1429 23.3649 26.8731 19.9998 26.8731C16.6348 26.8731 13.9046 24.1429 13.9046 20.7778C13.9046 17.4127 16.6348 14.6826 19.9998 14.6826ZM19.9998 31.3175C24.3808 31.3175 32.7617 33.7937 32.7617 37.6667V40.2064H7.23793V37.6667C7.23793 33.7937 15.6189 31.3175 19.9998 31.3175ZM19.9998 14.1111C16.3173 14.1111 13.3332 17.0953 13.3332 20.7778C13.3332 24.4604 16.3173 27.4445 19.9998 27.4445C23.6824 27.4445 26.6665 24.4604 26.6665 20.7778C26.6665 17.0953 23.6824 14.1111 19.9998 14.1111ZM19.9998 30.8096C15.5554 30.8096 6.6665 33.2858 6.6665 37.7302V40.7778H33.3332V37.6667C33.3332 33.2223 24.4443 30.8096 19.9998 30.8096Z" fill="white"/>
</svg>
