<svg width="34" height="48" viewBox="0 0 34 48" fill="none" xmlns="http://www.w3.org/2000/svg">
<path d="M17 25.0971C16.8629 25.0971 16.7258 25.0286 16.6572 24.96L7.81147 16.3885C5.41147 14.0571 4.04004 10.8343 4.04004 7.54284V0.47998H5.06861V7.54284C5.06861 10.6286 6.3029 13.5771 8.49718 15.7028L17 23.9314L25.5029 15.7028C27.6972 13.5771 28.9315 10.6286 28.9315 7.54284V0.47998H29.96V7.54284C29.96 10.9028 28.5886 14.0571 26.1886 16.3885L17.3429 24.96C17.2743 25.0286 17.1372 25.0971 17 25.0971Z" fill="white"/>
<path d="M30.097 47.52H29.0685V41.3486C29.0685 38.1257 27.697 35.1086 25.3656 32.9829L16.9999 25.3029L8.83989 32.9829C6.57703 35.1086 5.27418 38.1257 5.27418 41.28V47.52H4.24561V41.28C4.24561 37.8514 5.68561 34.6286 8.15418 32.2971L16.657 24.2743C16.8627 24.0686 17.137 24.0686 17.3427 24.2743L26.0513 32.2286C28.5885 34.56 30.097 37.8514 30.097 41.3486V47.52Z" fill="white"/>
<path d="M33.4573 1.02857H0.542988C0.268702 1.02857 0.0629883 0.822857 0.0629883 0.548571C0.0629883 0.274286 0.268702 0 0.542988 0H33.4573C33.7316 0 33.9373 0.205714 33.9373 0.48C33.9373 0.754286 33.7316 1.02857 33.4573 1.02857Z" fill="white"/>
<path d="M33.4573 48H0.542988C0.268702 48 0.0629883 47.7943 0.0629883 47.52C0.0629883 47.2457 0.268702 47.04 0.542988 47.04H33.4573C33.7316 47.04 33.9373 47.2457 33.9373 47.52C33.9373 47.7943 33.7316 48 33.4573 48Z" fill="white"/>
<path d="M9.59426 7.61143C9.31997 7.61143 9.11426 7.40571 9.11426 7.13143V4.52572C9.11426 4.25143 9.31997 4.04572 9.59426 4.04572C9.86854 4.04572 10.0743 4.25143 10.0743 4.52572V7.13143C10.0743 7.26857 10.0057 7.40571 9.93712 7.47429C9.79997 7.54286 9.66283 7.61143 9.59426 7.61143Z" fill="white"/>
<path d="M9.59426 12C9.31997 12 9.11426 11.7943 9.11426 11.52V10.0114C9.11426 9.73715 9.31997 9.53143 9.59426 9.53143C9.86854 9.53143 10.0743 9.73715 10.0743 10.0114V11.52C10.0743 11.6571 10.0057 11.7943 9.93712 11.8629C9.79997 12 9.66283 12 9.59426 12Z" fill="white"/>
</svg>
