<svg width="38" height="48" viewBox="0 0 38 48" fill="none" xmlns="http://www.w3.org/2000/svg">
<path d="M35.4574 3.77143C35.3202 2.74286 34.7716 1.78286 34.0174 1.09714C33.1945 0.411429 32.1659 0 31.1374 0H6.86307C5.83449 0 4.80592 0.411429 3.98307 1.09714C3.16021 1.78286 2.68021 2.74286 2.54307 3.77143C1.10307 4.66286 0.143066 6.30857 0.143066 8.02286V43.4743C0.143066 44.7086 0.623066 45.8057 1.44592 46.6971C2.26878 47.52 3.4345 48 4.66878 48H28.9431C29.7659 48 30.5888 47.6571 31.2059 47.1086C31.8231 46.56 32.1659 45.7371 32.2345 44.9143H34.8402C35.6631 44.9143 36.4174 44.5714 36.9659 44.0229C37.5145 43.4743 37.8574 42.72 37.8574 41.8971V8.02286C37.8574 6.30857 36.9659 4.66286 35.4574 3.77143ZM2.9545 4.38857C2.9545 4.25143 2.9545 4.11429 2.9545 3.90857C3.09164 2.94857 3.50307 2.05714 4.25735 1.44C5.01164 0.822857 5.90307 0.411429 6.86307 0.48H31.0688C32.0288 0.48 32.9888 0.822857 33.6745 1.50857C34.4288 2.12571 34.8402 3.01714 34.9774 3.97714C34.9774 4.11429 34.9774 4.25143 34.9774 4.45714V32.64C34.9088 32.5029 34.7716 32.3657 34.6345 32.2286C34.1545 31.7486 33.4688 31.4743 32.7831 31.4743H6.52021C5.76592 31.4743 5.08021 31.68 4.46307 32.0229C3.84592 32.4343 3.29735 32.9143 3.02307 33.6L2.9545 4.38857ZM6.52021 31.8857H32.9202C33.4688 31.8857 34.0859 32.0914 34.4974 32.5029C34.9088 32.9143 35.1145 33.4629 35.1145 34.08C35.1145 34.6286 34.9088 35.2457 34.4974 35.6571C34.0859 36.0686 33.5374 36.2743 32.9202 36.2743H7.7545C7.20592 36.2743 6.7945 35.8629 6.7945 35.3143C6.7945 34.7657 7.20592 34.3543 7.7545 34.3543H30.5202V33.8743H7.7545C6.93164 33.8743 6.3145 34.4914 6.3145 35.3143C6.3145 36.0686 6.93164 36.7543 7.7545 36.7543H30.2459C30.1774 37.3029 29.9716 37.8514 29.5602 38.2629C29.1488 38.6743 28.6002 38.9486 28.0516 39.0171H6.24592C5.3545 38.9486 4.53164 38.5371 3.91449 37.92C3.29735 37.2343 2.9545 36.4114 2.9545 35.52C2.9545 34.56 3.29735 33.6686 3.98307 32.9829C4.66878 32.2286 5.56021 31.8857 6.52021 31.8857ZM0.623066 8.02286C0.623066 6.58286 1.30878 5.21143 2.47449 4.32C2.47449 4.32 2.47449 4.32 2.47449 4.38857V35.3829C2.47449 36.4114 2.88592 37.44 3.64021 38.1943C3.9145 38.4686 4.25735 38.7429 4.60021 38.88C3.77735 38.88 2.95449 39.1543 2.20021 39.5657C1.5145 40.0457 0.897352 40.6629 0.554495 41.4171L0.623066 8.02286ZM34.8402 44.4343H6.10878C5.76592 44.4343 5.49164 44.3657 5.28592 44.0914C5.08021 43.8857 4.94307 43.5429 4.94307 43.2686C4.94307 42.9257 5.08021 42.6514 5.28592 42.4457C5.49164 42.24 5.8345 42.1029 6.10878 42.1029H32.0974V41.6229H6.10878C5.69735 41.6229 5.21735 41.76 4.94307 42.1029C4.60021 42.3771 4.46307 42.7886 4.46307 43.2686C4.46307 43.68 4.66878 44.0914 4.94307 44.4343C5.28592 44.7086 5.69735 44.9143 6.10878 44.9143H31.8231C31.7545 45.6 31.4802 46.2857 30.9316 46.7657C30.3831 47.2457 29.6974 47.52 29.0116 47.52H4.66878C3.57164 47.52 2.4745 47.1086 1.72021 46.3543C0.965924 45.6 0.485924 44.5714 0.485924 43.4743C0.485924 42.3771 0.897352 41.3486 1.72021 40.5257C2.4745 39.7714 3.57164 39.36 4.66878 39.36H6.17735C6.24592 39.36 6.3145 39.36 6.45164 39.36H27.7088C27.7774 39.36 27.8459 39.36 27.9831 39.36H34.8402C35.5259 39.36 36.2116 39.5657 36.6916 40.0457C37.1716 40.5257 37.4459 41.2114 37.4459 41.8286C37.4459 42.4457 37.1716 43.2 36.6916 43.6114C36.2116 44.2286 35.5259 44.4343 34.8402 44.4343ZM37.3774 40.3886C36.8288 39.4971 35.8688 38.9486 34.8402 38.9486H29.2859C30.0402 38.4686 30.5888 37.6457 30.6574 36.6857H32.9202C33.6059 36.6857 34.2916 36.4114 34.7716 35.9314C35.2516 35.4514 35.5259 34.7657 35.5259 34.08V4.38857C35.5259 4.38857 35.5259 4.38857 35.5259 4.32C36.6916 5.14286 37.3774 6.51429 37.3774 8.02286V40.3886Z" fill="white"/>
</svg>
