<svg width="48" height="48" viewBox="0 0 48 48" fill="none" xmlns="http://www.w3.org/2000/svg">
<path fill-rule="evenodd" clip-rule="evenodd" d="M24 48C37.2549 48 48 37.2549 48 24C48 19.1109 46.5381 14.5633 44.0275 10.7704L24.9467 31.9715C23.0997 34.0237 19.9915 34.3269 17.7825 32.6701L9.06667 26.1333C7.88845 25.2496 7.64968 23.5781 8.53333 22.4C9.41699 21.2219 11.0885 20.9829 12.2667 21.8667L20.9824 28.4035L40.5707 6.6388C36.2629 2.52579 30.4264 0 24 0C10.7452 0 0 10.7452 0 24C0 37.2549 10.7452 48 24 48Z" fill="#25232B"/>
</svg>
