<svg width="20" height="21" viewBox="0 0 20 21" fill="none" xmlns="http://www.w3.org/2000/svg">
<path d="M10 2.64024C12.6506 2.64024 13.0121 2.64024 14.0964 2.64024C15.0602 2.64024 15.5422 2.8812 15.9036 3.00168C16.3855 3.24265 16.747 3.36313 17.1084 3.72458C17.4699 4.08602 17.7108 4.44747 17.8313 4.92939C17.9518 5.29084 18.0723 5.77277 18.1928 6.73662C18.1928 7.82096 18.1928 8.06192 18.1928 10.833C18.1928 13.6041 18.1928 13.8451 18.1928 14.9294C18.1928 15.8933 17.9518 16.3752 17.8313 16.7366C17.5904 17.2186 17.4699 17.58 17.1084 17.9414C16.747 18.3029 16.3855 18.5439 15.9036 18.6643C15.5422 18.7848 15.0602 18.9053 14.0964 19.0258C13.0121 19.0258 12.7711 19.0258 10 19.0258C7.22892 19.0258 6.98795 19.0258 5.90362 19.0258C4.93976 19.0258 4.45783 18.7848 4.09639 18.6643C3.61446 18.4234 3.25301 18.3029 2.89157 17.9414C2.53012 17.58 2.28916 17.2186 2.16868 16.7366C2.04819 16.3752 1.92771 15.8933 1.80723 14.9294C1.80723 13.8451 1.80723 13.6041 1.80723 10.833C1.80723 8.06192 1.80723 7.82096 1.80723 6.73662C1.80723 5.77277 2.04819 5.29084 2.16868 4.92939C2.40964 4.44747 2.53012 4.08602 2.89157 3.72458C3.25301 3.36313 3.61446 3.12216 4.09639 3.00168C4.45783 2.8812 4.93976 2.76072 5.90362 2.64024C6.98795 2.64024 7.3494 2.64024 10 2.64024ZM10 0.833008C7.22892 0.833008 6.98795 0.833008 5.90362 0.833008C4.81928 0.833008 4.09639 1.07397 3.49398 1.31494C2.89157 1.5559 2.28916 1.91735 1.68675 2.51976C1.08434 3.12217 0.843374 3.60409 0.481928 4.32698C0.240965 4.92939 0.120482 5.65229 0 6.73662C0 7.82096 0 8.18241 0 10.833C0 13.6041 0 13.8451 0 14.9294C0 16.0137 0.240965 16.7366 0.481928 17.339C0.722892 17.9414 1.08434 18.5439 1.68675 19.1463C2.28916 19.7487 2.77109 19.9896 3.49398 20.3511C4.09639 20.592 4.81928 20.7125 5.90362 20.833C6.98795 20.833 7.3494 20.833 10 20.833C12.6506 20.833 13.0121 20.833 14.0964 20.833C15.1807 20.833 15.9036 20.592 16.506 20.3511C17.1084 20.1101 17.7108 19.7487 18.3133 19.1463C18.9157 18.5439 19.1566 18.0619 19.5181 17.339C19.759 16.7366 19.8795 16.0137 20 14.9294C20 13.8451 20 13.4836 20 10.833C20 8.18241 20 7.82096 20 6.73662C20 5.65229 19.759 4.92939 19.5181 4.32698C19.2771 3.72458 18.9157 3.12217 18.3133 2.51976C17.7108 1.91735 17.2289 1.67638 16.506 1.31494C15.9036 1.07397 15.1807 0.95349 14.0964 0.833008C13.0121 0.833008 12.7711 0.833008 10 0.833008Z" fill="white"/>
<path d="M10 5.65229C7.10843 5.65229 4.81928 7.94144 4.81928 10.833C4.81928 13.7246 7.10843 16.0137 10 16.0137C12.8916 16.0137 15.1807 13.7246 15.1807 10.833C15.1807 7.94144 12.8916 5.65229 10 5.65229ZM10 14.2065C8.19277 14.2065 6.62651 12.7607 6.62651 10.833C6.62651 9.02578 8.07229 7.45951 10 7.45951C11.8072 7.45951 13.3735 8.9053 13.3735 10.833C13.3735 12.6402 11.8072 14.2065 10 14.2065Z" fill="white"/>
<path d="M15.3012 6.73662C15.9666 6.73662 16.506 6.19721 16.506 5.5318C16.506 4.8664 15.9666 4.32698 15.3012 4.32698C14.6358 4.32698 14.0964 4.8664 14.0964 5.5318C14.0964 6.19721 14.6358 6.73662 15.3012 6.73662Z" fill="white"/>
</svg>
