<svg width="200" height="118" viewBox="0 0 200 118" fill="none" xmlns="http://www.w3.org/2000/svg">
<g clip-path="url(#clip0_218_97)">
<path d="M128.735 16.6352C128.735 32.4757 123.549 45.7056 113.177 56.2894C103.016 66.6616 90.6333 72.0947 76.0275 72.6239C75.0044 75.4815 73.8049 78.2333 72.4643 80.8793C71.1236 83.5606 69.6419 86.1712 68.019 88.7114C64.738 93.7564 61.7746 97.0726 59.1286 98.6955C79.7319 107.974 95.0432 112.596 105.027 112.596C114.729 112.596 119.598 109.491 119.598 103.282C119.598 101.518 118.892 99.8244 117.516 98.131C116.917 97.3196 116.317 96.5434 115.717 95.8379C115.082 95.097 114.482 94.3914 113.918 93.6505C113.777 93.2272 113.706 92.9097 113.706 92.7685C113.706 92.3452 113.918 92.0982 114.376 92.0982C114.588 92.0982 114.87 92.2041 115.258 92.4157C120.233 96.2965 122.702 99.8244 122.702 103.035C122.702 112.878 115.47 117.817 101.005 117.817C93.4203 117.817 85.5177 116.053 77.3329 112.56C76.9095 112.419 74.8633 111.396 71.1942 109.491C67.5251 107.586 62.1979 104.834 55.2126 101.271C47.9097 105.928 40.8185 108.362 33.9742 108.503C28.0473 108.644 22.4731 107.762 17.2164 105.857C11.36 103.74 7.02064 100.812 4.16299 97.1079C1.3759 93.5094 0 89.0995 0 83.9134C0 77.9158 1.79926 73.6117 5.3625 71.001C9.38437 67.8611 14.8174 68.2139 21.6969 72.0947C23.1434 72.9767 24.9074 74.1056 26.9183 75.5521C28.9293 76.9633 31.2224 78.7273 33.7626 80.7735C37.7139 83.8428 40.7832 86.2418 42.9705 88.0058C45.1579 89.7698 46.5338 90.8282 47.1335 91.1809C52.108 86.5946 56.3768 79.962 59.94 71.3538C51.1907 69.5193 44.3817 65.7091 39.5484 59.8527C35.2443 54.5255 33.0923 48.3515 33.0923 41.3309C33.0923 35.545 34.6093 29.9709 37.6786 24.5731C40.8185 19.2459 45.1932 14.977 50.8379 11.7666C50.979 11.696 51.1554 11.6608 51.4024 11.6608C52.1432 11.6608 52.496 12.0136 52.496 12.7544C52.496 13.1072 52.3196 13.4247 51.9315 13.6364C47.0982 16.2824 43.3233 20.0573 40.5362 25.0317C37.9961 29.5475 36.6908 34.4514 36.6908 39.708C36.6908 46.517 38.7017 52.4792 42.7236 57.6653C47.0277 63.3454 53.0958 67.1555 60.9278 69.0606C61.6687 67.2261 62.7271 64.0862 64.103 59.641C65.4789 55.1958 67.2076 49.3394 69.2538 42.107C70.8767 36.4976 72.4995 31.5232 74.1224 27.2191C75.7806 22.9149 77.5092 19.2106 79.3438 16.1413C84.7416 6.79217 91.1272 2.20582 98.5006 2.34694C99.6648 2.4175 100.758 2.55862 101.746 2.73502C102.734 2.91142 103.651 3.19365 104.533 3.54645C108.449 1.81775 112.683 0.971039 117.128 0.971039C120.409 0.971039 123.267 2.80558 125.666 6.43938C127.712 9.64982 128.735 13.0719 128.735 16.6352ZM49.2856 99.3658C48.5447 98.9425 47.7686 98.4133 46.8866 97.8488C46.0046 97.249 45.052 96.614 44.0289 95.8731C38.6311 99.2953 32.9511 101.024 27.0594 101.024C24.2018 101.024 21.2383 100.636 18.169 99.8245C17.8868 99.7539 17.7104 99.6128 17.6045 99.4011C17.4634 99.1189 17.4634 98.9072 17.6045 98.7308C17.7456 98.5191 17.922 98.4485 18.169 98.5191C19.6154 98.8013 21.0619 99.013 22.4378 99.1894C23.8137 99.3305 25.1896 99.4011 26.495 99.4011C32.4219 99.4011 37.7492 97.9193 42.4766 94.9206C39.9365 93.086 37.3964 91.2515 34.8562 89.4522C32.3514 87.6177 29.8113 85.7832 27.2358 83.9839C19.933 79.327 14.3941 76.9633 10.5839 76.9633C5.46834 76.9633 2.92821 79.4328 2.92821 84.4073C2.92821 87.3355 4.02187 90.5812 6.20921 94.1444C8.39654 97.6371 11.6423 100.354 15.9464 102.259C19.8977 104.093 24.4135 105.011 29.529 105.011C37.0436 104.94 43.6056 103.07 49.2856 99.3658ZM48.7564 92.3452C49.7795 93.086 50.7673 93.7564 51.7199 94.4267C52.6724 95.097 53.625 95.6967 54.5775 96.2965C56.4826 96.0143 59.1991 92.9097 62.7977 86.9827C65.867 81.8671 68.1602 77.0338 69.7125 72.5181C68.5482 72.4475 67.4193 72.3769 66.3256 72.3064C65.232 72.2358 64.1736 72.13 63.1505 71.9889C59.2344 80.5265 54.4364 87.3002 48.7564 92.3452ZM64.103 69.7662C66.1492 70.119 68.2307 70.366 70.3475 70.4365L70.5592 69.7662C70.8414 69.0254 71.5823 66.8028 72.8171 63.0984C74.0166 59.3588 75.6747 54.0668 77.7915 47.2226C79.4849 41.8954 80.9667 37.3796 82.272 33.6752C83.5773 29.9709 84.671 27.0779 85.553 24.9612C89.7866 15.1182 95.5724 8.23863 102.875 4.35788C101.711 4.00508 100.229 3.72285 98.5006 3.58173C91.5505 3.44061 85.7294 8.06224 80.9667 17.4113C79.5202 20.4101 78.0032 24.0439 76.4861 28.3833C74.9691 32.6874 73.4521 37.6971 72.0056 43.3771C68.6894 56.0778 66.0787 64.8977 64.103 69.7662ZM124.008 17.1996C124.008 8.1328 121.362 3.61701 116.105 3.61701C113.847 3.61701 111.307 4.56956 108.555 6.47466C110.672 8.94423 111.73 12.0488 111.73 15.7885C111.73 19.9515 110.425 23.9381 107.779 27.713C104.921 31.876 101.041 34.8747 96.1722 36.7093C95.7488 36.8504 95.4313 36.7445 95.2902 36.3917C95.149 36.039 95.2549 35.7214 95.6077 35.5098C99.9118 33.5341 103.404 30.5001 106.015 26.4076C108.485 22.5974 109.755 18.752 109.755 14.8006C109.755 11.7313 108.943 9.26174 107.356 7.35664C102.17 11.3785 97.7597 17.2702 94.0907 24.9964C92.0444 29.3711 89.8571 34.4866 87.5287 40.3431C85.2002 46.1995 82.6954 52.8673 80.0847 60.3819L76.592 70.366C89.963 69.6957 101.288 63.9804 110.566 53.1496C119.527 42.601 124.008 30.6412 124.008 17.1996Z" fill="white" fill-opacity="0.4"/>
<path d="M67.7015 43.0596H64.6675V61.9694H67.1371H67.7015H77.6504V58.9001H67.7015V43.0596Z" fill="white"/>
<path d="M115.4 54.3491C115.4 56.995 113.247 59.1118 110.637 59.1118C107.991 59.1118 105.874 56.9597 105.874 54.3491V43.0596H102.805V54.3491C102.805 58.6532 106.297 62.1811 110.637 62.1811C114.941 62.1811 118.469 58.6884 118.469 54.3491V43.0596H115.4V54.3491Z" fill="white"/>
<path d="M89.1515 42.8126C83.789 42.8126 79.4496 47.152 79.4496 52.5145C79.4496 57.877 83.789 62.2164 89.1515 62.2164C94.514 62.2164 98.8534 57.877 98.8534 52.5145C98.8534 47.152 94.514 42.8126 89.1515 42.8126ZM89.1515 59.1471C85.5177 59.1471 82.5542 56.1836 82.5542 52.5498C82.5542 48.916 85.5177 45.9525 89.1515 45.9525C92.7853 45.9525 95.7488 48.916 95.7488 52.5498C95.7488 56.1836 92.7853 59.1471 89.1515 59.1471Z" fill="white"/>
<path d="M129.229 43.0596L120.903 61.9694H124.219L126.195 57.4889H135.297L137.273 61.9694H140.589L132.298 43.0596H129.229ZM127.536 54.4196L130.746 47.1167L133.957 54.4196H127.536Z" fill="white"/>
<path d="M156.994 56.2189L146.939 43.0596H143.87V61.9694H146.939V48.8102L156.994 61.9694H160.028V43.0596H156.994V56.2189Z" fill="white"/>
<path d="M200 46.1289V43.0596H189.099H186.629H186.065V61.9694H186.629H189.099H200V58.9001H189.099V54.0315H198.765V50.9975H189.099V46.1289H200Z" fill="white"/>
<path d="M179.855 51.5972H178.444H173.646V54.4902H178.444V57.4889C177.28 58.512 175.763 59.1471 174.069 59.1471C170.436 59.1471 167.472 56.1836 167.472 52.5498C167.472 48.916 170.436 45.9525 174.069 45.9525C175.939 45.9525 177.633 46.7287 178.868 47.9987L180.914 45.635C179.15 43.9063 176.751 42.8479 174.105 42.8479C168.742 42.8479 164.403 47.1873 164.403 52.5498C164.403 57.9123 168.742 62.2517 174.105 62.2517C177.104 62.2517 179.82 60.8758 181.584 58.7237V58.3709V51.6325H180.632H179.855V51.5972Z" fill="white"/>
<path d="M71.1589 70.7188H71.9704V75.7285H71.1589V76.3988H73.946V75.7285H73.1346V70.7188H73.946V70.0485H71.1589V70.7188Z" fill="white"/>
<path d="M81.637 70.7188H82.4484V74.282L82.4837 74.7759L82.1662 74.2467L79.0616 70.0837V70.0485H77.1565V70.7188H77.9679V75.7285H77.1565V76.3988H79.4849V75.7285H78.7088V71.5655L78.6382 71.248L78.8852 71.636L82.4484 76.4693L82.4837 76.5046H83.1893V70.7188H84.0007V70.0485H81.637V70.7188Z" fill="white"/>
<path d="M86.9642 72.0594H87.7756V70.8599L87.8815 70.7188H89.3279V75.7285H88.4459V76.3988H91.4094V75.7285H90.4921V70.7188H91.9386L92.0797 70.8599V72.0594H92.8912V70.0485H86.9642V72.0594Z" fill="white"/>
<path d="M100.123 75.5874L99.9824 75.7285H97.795V73.5059H99.1709L99.2415 73.5764V73.9998H99.9824V72.3416H99.2415V72.765L99.1709 72.8355H97.795V70.7188H99.8412L99.9824 70.8599V71.6713H100.723V70.0485H95.8546V70.7188H96.6308V75.7285H95.8546V76.3988H100.864V74.7054H100.123V75.5874Z" fill="white"/>
<path d="M107.991 73.5764C108.379 73.4353 108.696 73.2236 108.943 72.9414C109.226 72.6239 109.367 72.2358 109.367 71.8124C109.367 71.4949 109.296 71.2127 109.19 70.9657C109.049 70.7188 108.873 70.5424 108.661 70.4013C108.449 70.2601 108.202 70.1543 107.885 70.0837C107.321 69.9426 106.685 69.9779 106.015 70.0132C105.698 70.0485 105.415 70.0485 105.168 70.0485H104.181V70.7188H104.992V75.7285H104.181V76.3988H106.897V75.7285H106.121V73.7528H106.897L108.661 76.3988H110.213V75.7285H109.614L107.991 73.5764ZM108.132 71.8124C108.132 72.2005 108.026 72.518 107.779 72.765C107.532 73.012 107.215 73.1178 106.791 73.1178H106.192V70.6835C106.262 70.6835 106.333 70.6835 106.403 70.6482C106.509 70.6482 106.615 70.6482 106.791 70.6482C107.215 70.6482 107.567 70.7541 107.814 70.9305C107.991 71.1069 108.132 71.4244 108.132 71.8124Z" fill="white"/>
<path d="M113.247 70.7188H114.059V75.7285H113.247V76.3988H116.035V75.7285H115.223V70.7188H116.035V70.0485H113.247V70.7188Z" fill="white"/>
<path d="M125.101 70.8952C124.819 70.6129 124.466 70.366 124.078 70.2249C123.69 70.0485 123.232 69.9779 122.702 69.9779C122.208 69.9779 121.75 70.0485 121.327 70.2249C120.938 70.4013 120.586 70.6129 120.303 70.8952C120.021 71.1774 119.809 71.5302 119.668 71.9536C119.527 72.3416 119.457 72.8003 119.457 73.2589C119.457 73.7175 119.527 74.1762 119.668 74.5643C119.809 74.9523 120.021 75.3051 120.303 75.6226C120.586 75.9049 120.903 76.1518 121.327 76.2929C121.715 76.4693 122.173 76.5399 122.702 76.5399C123.196 76.5399 123.655 76.4693 124.078 76.2929C124.466 76.1166 124.819 75.9049 125.101 75.6226C125.384 75.3404 125.595 74.9876 125.736 74.5643C125.878 74.1762 125.948 73.7175 125.948 73.2589C125.948 72.8003 125.878 72.3416 125.736 71.9536C125.595 71.5302 125.384 71.1774 125.101 70.8952ZM122.808 75.8343C122.455 75.8343 122.173 75.7638 121.891 75.6226C121.644 75.4815 121.432 75.3051 121.256 75.0934C121.08 74.8465 120.974 74.5995 120.868 74.282C120.797 73.9645 120.727 73.6117 120.727 73.2589C120.727 72.9061 120.762 72.5533 120.833 72.2358C120.903 71.9183 121.009 71.636 121.15 71.4244C121.291 71.2127 121.503 71.001 121.715 70.8952C121.962 70.7541 122.244 70.6835 122.561 70.6835C122.914 70.6835 123.232 70.7541 123.479 70.8952C123.726 71.0363 123.937 71.2127 124.114 71.4244C124.29 71.6713 124.396 71.9183 124.502 72.2358C124.572 72.5533 124.643 72.9061 124.643 73.2589C124.643 73.6117 124.608 73.9645 124.537 74.282C124.466 74.5995 124.325 74.8818 124.184 75.0934C124.043 75.3051 123.831 75.5168 123.584 75.6226C123.373 75.7638 123.126 75.8343 122.808 75.8343Z" fill="white"/>
<path d="M133.039 73.5764C133.427 73.4353 133.745 73.2236 133.992 72.9414C134.274 72.6239 134.415 72.2358 134.415 71.8124C134.415 71.4949 134.345 71.2127 134.239 70.9657C134.098 70.7188 133.921 70.5424 133.71 70.4013C133.498 70.2601 133.251 70.1543 132.933 70.0837C132.369 69.9426 131.734 69.9779 131.064 70.0132C130.746 70.0485 130.464 70.0485 130.217 70.0485H129.229V70.7188H130.041V75.7285H129.229V76.3988H131.946V75.7285H131.17V73.7528H131.946L133.71 76.3988H135.262V75.7285H134.662L133.039 73.5764ZM133.145 71.8124C133.145 72.2005 133.039 72.518 132.792 72.765C132.545 73.012 132.228 73.1178 131.805 73.1178H131.205V70.6835C131.275 70.6835 131.346 70.6835 131.416 70.6482C131.522 70.6482 131.628 70.6482 131.805 70.6482C132.228 70.6482 132.581 70.7541 132.828 70.9305C133.039 71.1069 133.145 71.4244 133.145 71.8124Z" fill="white"/>
<path d="M146.975 73.2236C146.728 73.0825 146.446 72.9414 146.163 72.8003C145.881 72.6944 145.634 72.5533 145.387 72.4122C145.14 72.2711 144.964 72.13 144.787 71.9888C144.646 71.8477 144.576 71.6713 144.576 71.4596C144.576 71.1774 144.646 71.001 144.858 70.8599C145.034 70.7188 145.317 70.6482 145.634 70.6482C145.846 70.6482 146.058 70.6482 146.234 70.6835C146.41 70.7188 146.551 70.7188 146.657 70.7893L146.763 70.9657V71.9888H147.504V70.3307L147.433 70.2954C147.222 70.1896 146.975 70.119 146.657 70.0837C146.375 70.0132 145.987 70.0132 145.599 70.0132C144.929 70.0132 144.399 70.1543 144.011 70.4365C143.623 70.7188 143.412 71.1421 143.412 71.6713C143.412 72.0241 143.482 72.3416 143.658 72.5533C143.835 72.8003 144.047 72.9767 144.294 73.1531C144.54 73.3295 144.823 73.4706 145.105 73.5764C145.387 73.6823 145.634 73.8234 145.881 73.9292C146.128 74.0351 146.304 74.1762 146.446 74.3526C146.587 74.4937 146.657 74.6701 146.657 74.8818C146.657 75.0582 146.622 75.1993 146.551 75.3404C146.481 75.4462 146.375 75.5521 146.269 75.6579C146.128 75.7285 145.987 75.799 145.811 75.8343C145.458 75.9049 144.999 75.9049 144.646 75.8343C144.47 75.799 144.329 75.7285 144.258 75.6579L144.117 75.4815V74.3879H143.376V76.1166L143.412 76.1518C143.553 76.2577 143.8 76.3635 144.117 76.4341C144.435 76.5399 144.787 76.5752 145.211 76.5752C145.987 76.5752 146.622 76.4341 147.081 76.1166C147.539 75.799 147.786 75.3404 147.786 74.7407C147.786 74.3879 147.716 74.1056 147.539 73.8939C147.433 73.5764 147.222 73.3647 146.975 73.2236Z" fill="white"/>
<path d="M150.997 72.0594H151.808V70.8599L151.949 70.7188H153.396V75.7285H152.478V76.3988H155.477V75.7285H154.56V70.7188H156.006L156.147 70.8599V72.0594H156.959V70.0485H150.997V72.0594Z" fill="white"/>
<path d="M164.121 70.7188H164.862V74.1409C164.862 74.7054 164.72 75.0934 164.438 75.3404C164.156 75.5874 163.768 75.6932 163.274 75.6932C163.027 75.6932 162.78 75.6579 162.568 75.6226C162.357 75.5874 162.216 75.4815 162.074 75.3757C161.933 75.2698 161.827 75.0934 161.757 74.917C161.686 74.7054 161.651 74.4584 161.651 74.1762V70.7188H162.392V70.0485H159.711V70.7188H160.522V74.3526C160.522 75.0582 160.769 75.6226 161.228 75.9754C161.686 76.3282 162.321 76.5046 163.203 76.5046C163.556 76.5046 163.909 76.4693 164.191 76.3635C164.473 76.2577 164.756 76.1166 164.967 75.9402C165.179 75.7638 165.355 75.5168 165.461 75.2346C165.567 74.9523 165.638 74.5995 165.638 74.2115V70.7188H166.449V70.0485H164.191V70.7188H164.121Z" fill="white"/>
<path d="M174.669 70.8246C174.387 70.5424 173.999 70.3307 173.576 70.1896C173.152 70.0485 172.658 69.9779 172.094 69.9779C171.988 69.9779 171.882 69.9779 171.706 69.9779C171.565 69.9779 171.424 69.9779 171.247 70.0132C171.106 70.0132 170.93 70.0132 170.788 70.0485C170.647 70.0485 170.506 70.0485 170.4 70.0485H169.236V70.7188H170.048V75.7285H169.236V76.3988H170.33C170.436 76.3988 170.577 76.3988 170.718 76.3988L171.141 76.4341C171.282 76.4341 171.424 76.4341 171.529 76.4693C171.67 76.4693 171.776 76.4693 171.847 76.4693C172.482 76.4693 173.011 76.3988 173.47 76.2224C173.928 76.046 174.316 75.8343 174.599 75.5168C174.881 75.1993 175.128 74.8465 175.269 74.4584C175.41 74.0703 175.481 73.6117 175.481 73.1178C175.481 72.6239 175.41 72.1652 175.269 71.7772C175.198 71.4244 174.987 71.0716 174.669 70.8246ZM172.059 75.799C172.023 75.799 171.953 75.799 171.882 75.799H171.6C171.494 75.799 171.424 75.799 171.318 75.799C171.282 75.799 171.247 75.799 171.212 75.799V70.7188C171.282 70.7188 171.388 70.7188 171.494 70.6835C171.635 70.6835 171.812 70.6835 171.953 70.6835C172.411 70.6835 172.764 70.7541 173.082 70.8952C173.364 71.0363 173.611 71.248 173.787 71.4949C173.964 71.7419 174.069 72.0241 174.14 72.3064C174.211 72.5886 174.246 72.9061 174.246 73.1883C174.246 73.5411 174.211 73.8939 174.14 74.2115C174.069 74.529 173.928 74.8112 173.787 75.0582C173.611 75.3051 173.399 75.4815 173.117 75.6226C172.835 75.7285 172.482 75.799 172.059 75.799Z" fill="white"/>
<path d="M179.009 70.7188H179.82V75.7285H179.009V76.3988H181.76V75.7285H180.984V70.7188H181.76V70.0485H179.009V70.7188Z" fill="white"/>
<path d="M191.498 71.9183C191.356 71.5302 191.145 71.1774 190.863 70.8599C190.58 70.5777 190.228 70.3307 189.839 70.1896C189.451 70.0132 188.993 69.9426 188.464 69.9426C187.97 69.9426 187.511 70.0132 187.088 70.1896C186.7 70.366 186.347 70.5777 186.065 70.8599C185.782 71.1421 185.571 71.4949 185.43 71.9183C185.288 72.3064 185.218 72.765 185.218 73.2236C185.218 73.6823 185.288 74.1409 185.43 74.529C185.571 74.917 185.782 75.2698 186.065 75.5874C186.347 75.8696 186.664 76.1166 187.088 76.2577C187.476 76.4341 187.934 76.5046 188.464 76.5046C188.957 76.5046 189.416 76.4341 189.839 76.2577C190.228 76.0813 190.58 75.8696 190.863 75.5874C191.145 75.3051 191.356 74.9523 191.498 74.529C191.639 74.1409 191.709 73.6823 191.709 73.2236C191.709 72.765 191.639 72.3064 191.498 71.9183ZM188.534 75.8343C188.181 75.8343 187.899 75.7638 187.617 75.6226C187.37 75.4815 187.158 75.3051 186.982 75.0934C186.805 74.8465 186.7 74.5995 186.594 74.282C186.523 73.9645 186.453 73.6117 186.453 73.2589C186.453 72.9061 186.488 72.5533 186.558 72.2358C186.629 71.9183 186.735 71.636 186.876 71.4244C187.017 71.2127 187.229 71.001 187.44 70.8952C187.687 70.7541 187.97 70.6835 188.287 70.6835C188.64 70.6835 188.957 70.7541 189.204 70.8952C189.451 71.0363 189.663 71.2127 189.839 71.4244C190.016 71.6713 190.122 71.9183 190.228 72.2358C190.298 72.5533 190.369 72.9061 190.369 73.2589C190.369 73.6117 190.333 73.9645 190.263 74.282C190.192 74.5995 190.051 74.8818 189.91 75.0934C189.769 75.3051 189.557 75.5168 189.31 75.6226C189.134 75.7638 188.852 75.8343 188.534 75.8343Z" fill="white"/>
</g>
<defs>
<clipPath id="clip0_218_97">
<rect width="200" height="116.917" fill="white" transform="translate(0 0.971039)"/>
</clipPath>
</defs>
</svg>
