<svg width="83" height="48" viewBox="0 0 83 48" fill="none" xmlns="http://www.w3.org/2000/svg">
<path d="M52.8521 6.4309C52.8521 12.9342 50.723 18.3657 46.4647 22.7109C42.2933 26.9692 37.2094 29.1998 31.213 29.417C30.793 30.5902 30.3005 31.72 29.7501 32.8063C29.1998 33.9071 28.5914 34.9789 27.9252 36.0217C26.5782 38.0929 25.3615 39.4544 24.2752 40.1207C32.7339 43.93 39.0199 45.8274 43.1189 45.8274C47.102 45.8274 49.1008 44.5528 49.1008 42.0036C49.1008 41.2794 48.8111 40.5842 48.2462 39.889C48 39.5558 47.7538 39.2372 47.5075 38.9475C47.2468 38.6433 47.0006 38.3537 46.7689 38.0495C46.7109 37.8757 46.6819 37.7453 46.6819 37.6874C46.6819 37.5136 46.7689 37.4122 46.9571 37.4122C47.0441 37.4122 47.1599 37.4556 47.3192 37.5425C49.3615 39.1358 50.3754 40.5842 50.3754 41.9022C50.3754 45.9433 47.4062 47.971 41.4677 47.971C38.3536 47.971 35.1092 47.2468 31.7489 45.8129C31.5751 45.755 30.7351 45.3349 29.2287 44.5528C27.7224 43.7707 25.5353 42.6409 22.6675 41.178C19.6693 43.0899 16.758 44.0893 13.9481 44.1473C11.5148 44.2052 9.22631 43.8431 7.06819 43.061C4.66385 42.1919 2.88232 40.9897 1.70911 39.4689C0.564876 37.9916 0 36.1811 0 34.0519C0 31.5896 0.738684 29.8226 2.20157 28.7508C3.85275 27.4617 6.08328 27.6065 8.90766 29.1998C9.50151 29.5619 10.2257 30.0253 11.0513 30.6192C11.8769 31.1986 12.8183 31.9228 13.8612 32.7628C15.4834 34.0229 16.7435 35.0078 17.6415 35.732C18.5395 36.4562 19.1044 36.8908 19.3506 37.0356C21.3929 35.1527 23.1454 32.4297 24.6083 28.8956C21.0163 28.1424 18.2209 26.5782 16.2366 24.1738C14.4695 21.9867 13.586 19.452 13.586 16.5697C13.586 14.1943 14.2088 11.9059 15.4689 9.6898C16.758 7.50272 18.554 5.75015 20.8715 4.43211C20.9294 4.40314 21.0018 4.38865 21.1032 4.38865C21.4074 4.38865 21.5522 4.53349 21.5522 4.83766C21.5522 4.9825 21.4798 5.11285 21.3205 5.19976C19.3361 6.28606 17.7864 7.83585 16.6421 9.87809C15.5993 11.732 15.0634 13.7453 15.0634 15.9034C15.0634 18.6989 15.889 21.1467 17.5401 23.2758C19.3072 25.6077 21.7984 27.172 25.0139 27.9541C25.318 27.201 25.7526 25.9119 26.3174 24.0869C26.8823 22.2619 27.592 19.8576 28.4321 16.8884C29.0984 14.5854 29.7646 12.5432 30.4309 10.7761C31.1116 9.00905 31.8214 7.48823 32.5745 6.22812C34.7906 2.38986 37.4122 0.50694 40.4393 0.564876C40.9173 0.593844 41.3663 0.65178 41.7719 0.7242C42.1774 0.79662 42.554 0.912493 42.9161 1.05733C44.5238 0.347616 46.2619 0 48.0869 0C49.4339 0 50.6071 0.753168 51.592 2.24502C52.4321 3.56307 52.8521 4.96801 52.8521 6.4309ZM20.2342 40.3959C19.93 40.2221 19.6113 40.0048 19.2492 39.7731C18.8871 39.5269 18.4961 39.2661 18.076 38.962C15.86 40.3669 13.5281 41.0766 11.1092 41.0766C9.93603 41.0766 8.71937 40.9173 7.45926 40.5842C7.34339 40.5552 7.27097 40.4973 7.22752 40.4104C7.16958 40.2945 7.16958 40.2076 7.22752 40.1352C7.28546 40.0483 7.35788 40.0193 7.45926 40.0483C8.05311 40.1642 8.64695 40.2511 9.21183 40.3235C9.7767 40.3814 10.3416 40.4104 10.8775 40.4104C13.3108 40.4104 15.4979 39.8021 17.4387 38.5709C16.3959 37.8177 15.353 37.0646 14.3102 36.3259C13.2818 35.5727 12.239 34.8196 11.1817 34.0809C8.18346 32.169 5.90947 31.1986 4.3452 31.1986C2.24502 31.1986 1.20217 32.2124 1.20217 34.2547C1.20217 35.4569 1.65118 36.7894 2.54919 38.2523C3.44719 39.6862 4.77972 40.8014 6.54677 41.5836C8.16898 42.3368 10.0229 42.7133 12.1231 42.7133C15.2082 42.6844 17.9022 41.9167 20.2342 40.3959ZM20.0169 37.5136C20.4369 37.8177 20.8425 38.0929 21.2336 38.3681C21.6246 38.6433 22.0157 38.8896 22.4068 39.1358C23.1889 39.0199 24.3042 37.7453 25.7815 35.312C27.0416 33.2118 27.9831 31.2275 28.6204 29.3736C28.1424 29.3446 27.6789 29.3156 27.2299 29.2867C26.7809 29.2577 26.3464 29.2142 25.9264 29.1563C24.3186 32.6614 22.3488 35.4424 20.0169 37.5136ZM26.3174 28.2438C27.1575 28.3887 28.0121 28.49 28.8811 28.519L28.968 28.2438C29.0839 27.9397 29.388 27.0272 29.895 25.5063C30.3874 23.971 31.0682 21.7984 31.9372 18.9885C32.6325 16.8014 33.2408 14.9475 33.7767 13.4267C34.3126 11.9059 34.7616 10.7182 35.1237 9.84912C36.8618 5.80809 39.2372 2.98371 42.2354 1.39046C41.7574 1.24562 41.1491 1.12975 40.4393 1.07182C37.586 1.01388 35.1961 2.91129 33.2408 6.74955C32.6469 7.98069 32.0241 9.47254 31.4013 11.2541C30.7785 13.0211 30.1557 15.0779 29.5619 17.4098C28.2004 22.624 27.1285 26.245 26.3174 28.2438ZM50.9113 6.66264C50.9113 2.94025 49.825 1.0863 47.6669 1.0863C46.7399 1.0863 45.697 1.47737 44.5673 2.25951C45.4363 3.27339 45.8708 4.54798 45.8708 6.08328C45.8708 7.7924 45.3349 9.42909 44.2486 10.9789C43.0754 12.688 41.4822 13.9191 39.4834 14.6723C39.3096 14.7302 39.1792 14.6868 39.1213 14.5419C39.0634 14.3971 39.1068 14.2667 39.2517 14.1798C41.0187 13.3687 42.4526 12.1231 43.5244 10.443C44.5383 8.8787 45.0597 7.29994 45.0597 5.67773C45.0597 4.41762 44.7266 3.40374 44.0748 2.62161C41.9457 4.27278 40.1352 6.69161 38.6288 9.86361C37.7888 11.6596 36.8908 13.7598 35.9348 16.1642C34.9789 18.5685 33.9505 21.306 32.8787 24.3911L31.4448 28.49C36.9342 28.2148 41.5836 25.8684 45.3929 21.4218C49.0718 17.0911 50.9113 12.1811 50.9113 6.66264Z" fill="white" fill-opacity="0.4"/>
<path d="M27.7948 17.2794H26.5492V25.0428H27.5631H27.7948H31.8793V23.7827H27.7948V17.2794Z" fill="white"/>
<path d="M47.3772 21.9143C47.3772 23.0006 46.4937 23.8696 45.4218 23.8696C44.3355 23.8696 43.4665 22.9861 43.4665 21.9143V17.2794H42.2064V21.9143C42.2064 23.6814 43.6403 25.1298 45.4218 25.1298C47.1889 25.1298 48.6373 23.6958 48.6373 21.9143V17.2794H47.3772V21.9143Z" fill="white"/>
<path d="M36.6011 17.178C34.3995 17.178 32.618 18.9596 32.618 21.1611C32.618 23.3627 34.3995 25.1442 36.6011 25.1442C38.8027 25.1442 40.5842 23.3627 40.5842 21.1611C40.5842 18.9596 38.8027 17.178 36.6011 17.178ZM36.6011 23.8841C35.1092 23.8841 33.8926 22.6675 33.8926 21.1756C33.8926 19.6838 35.1092 18.4671 36.6011 18.4671C38.0929 18.4671 39.3096 19.6838 39.3096 21.1756C39.3096 22.6675 38.0929 23.8841 36.6011 23.8841Z" fill="white"/>
<path d="M53.0549 17.2794L49.6367 25.0428H50.9982L51.8093 23.2034H55.5462L56.3573 25.0428H57.7188L54.315 17.2794H53.0549ZM52.3597 21.9433L53.6777 18.9451L54.9958 21.9433H52.3597Z" fill="white"/>
<path d="M64.4538 22.682L60.3259 17.2794H59.0658V25.0428H60.3259V19.6403L64.4538 25.0428H65.6995V17.2794H64.4538V22.682Z" fill="white"/>
<path d="M82.1098 18.5395V17.2794H77.6343H76.6204H76.3887V25.0428H76.6204H77.6343H82.1098V23.7827H77.6343V21.7839H81.6029V20.5383H77.6343V18.5395H82.1098Z" fill="white"/>
<path d="M73.8395 20.7846H73.2601H71.2903V21.9723H73.2601V23.2034C72.7821 23.6234 72.1593 23.8841 71.4641 23.8841C69.9722 23.8841 68.7556 22.6675 68.7556 21.1756C68.7556 19.6838 69.9722 18.4671 71.4641 18.4671C72.2317 18.4671 72.927 18.7858 73.4339 19.3072L74.274 18.3368C73.5498 17.6271 72.5649 17.1925 71.4786 17.1925C69.277 17.1925 67.4955 18.9741 67.4955 21.1756C67.4955 23.3772 69.277 25.1587 71.4786 25.1587C72.7097 25.1587 73.825 24.5939 74.5492 23.7103V23.5655V20.7991H74.1581H73.8395V20.7846Z" fill="white"/>
<path d="M29.2142 28.6349H29.5474V30.6916H29.2142V30.9668H30.3585V30.6916H30.0253V28.6349H30.3585V28.3597H29.2142V28.6349Z" fill="white"/>
<path d="M33.516 28.6349H33.8491V30.0978L33.8636 30.3005L33.7332 30.0833L32.4587 28.3742V28.3597H31.6765V28.6349H32.0097V30.6916H31.6765V30.9668H32.6325V30.6916H32.3138V28.9825L32.2848 28.8521L32.3862 29.0115L33.8491 30.9958L33.8636 31.0103H34.1533V28.6349H34.4864V28.3597H33.516V28.6349Z" fill="white"/>
<path d="M35.7031 29.1853H36.0362V28.6928L36.0797 28.6349H36.6735V30.6916H36.3114V30.9668H37.5281V30.6916H37.1515V28.6349H37.7453L37.8033 28.6928V29.1853H38.1364V28.3597H35.7031V29.1853Z" fill="white"/>
<path d="M41.1056 30.6337L41.0477 30.6916H40.1497V29.7791H40.7145L40.7435 29.8081V29.9819H41.0477V29.3011H40.7435V29.4749L40.7145 29.5039H40.1497V28.6349H40.9897L41.0477 28.6928V29.0259H41.3518V28.3597H39.3531V28.6349H39.6717V30.6916H39.3531V30.9668H41.4098V30.2716H41.1056V30.6337Z" fill="white"/>
<path d="M44.3355 29.8081C44.4949 29.7501 44.6252 29.6632 44.7266 29.5474C44.8425 29.417 44.9004 29.2577 44.9004 29.0839C44.9004 28.9535 44.8715 28.8377 44.828 28.7363C44.7701 28.6349 44.6976 28.5625 44.6107 28.5045C44.5238 28.4466 44.4224 28.4031 44.2921 28.3742C44.0603 28.3162 43.7996 28.3307 43.5244 28.3452C43.3941 28.3597 43.2782 28.3597 43.1768 28.3597H42.7713V28.6349H43.1044V30.6916H42.7713V30.9668H43.8865V30.6916H43.5679V29.8805H43.8865L44.6107 30.9668H45.248V30.6916H45.0018L44.3355 29.8081ZM44.3935 29.0839C44.3935 29.2432 44.35 29.3736 44.2486 29.475C44.1473 29.5763 44.0169 29.6198 43.8431 29.6198H43.5969V28.6204C43.6258 28.6204 43.6548 28.6204 43.6838 28.6059C43.7272 28.6059 43.7707 28.6059 43.8431 28.6059C44.0169 28.6059 44.1617 28.6494 44.2631 28.7218C44.3355 28.7942 44.3935 28.9246 44.3935 29.0839Z" fill="white"/>
<path d="M46.4937 28.6349H46.8268V30.6916H46.4937V30.9668H47.6379V30.6916H47.3048V28.6349H47.6379V28.3597H46.4937V28.6349Z" fill="white"/>
<path d="M51.3603 28.7073C51.2444 28.5914 51.0996 28.49 50.9403 28.4321C50.7809 28.3597 50.5926 28.3307 50.3754 28.3307C50.1726 28.3307 49.9843 28.3597 49.8105 28.4321C49.6512 28.5045 49.5063 28.5914 49.3905 28.7073C49.2746 28.8232 49.1877 28.968 49.1298 29.1418C49.0718 29.3011 49.0428 29.4894 49.0428 29.6777C49.0428 29.866 49.0718 30.0543 49.1298 30.2136C49.1877 30.373 49.2746 30.5178 49.3905 30.6482C49.5063 30.764 49.6367 30.8654 49.8105 30.9234C49.9698 30.9958 50.1581 31.0247 50.3754 31.0247C50.5781 31.0247 50.7664 30.9958 50.9403 30.9234C51.0996 30.8509 51.2444 30.764 51.3603 30.6482C51.4762 30.5323 51.5631 30.3874 51.621 30.2136C51.6789 30.0543 51.7079 29.866 51.7079 29.6777C51.7079 29.4894 51.6789 29.3011 51.621 29.1418C51.5631 28.968 51.4762 28.8232 51.3603 28.7073ZM50.4188 30.7351C50.274 30.7351 50.1581 30.7061 50.0422 30.6482C49.9409 30.5902 49.854 30.5178 49.7815 30.4309C49.7091 30.3295 49.6657 30.2281 49.6222 30.0978C49.5932 29.9674 49.5643 29.8226 49.5643 29.6777C49.5643 29.5329 49.5788 29.3881 49.6077 29.2577C49.6367 29.1273 49.6801 29.0115 49.7381 28.9246C49.796 28.8377 49.8829 28.7508 49.9698 28.7073C50.0712 28.6494 50.1871 28.6204 50.3174 28.6204C50.4623 28.6204 50.5926 28.6494 50.694 28.7073C50.7954 28.7652 50.8823 28.8377 50.9547 28.9246C51.0272 29.026 51.0706 29.1273 51.1141 29.2577C51.143 29.3881 51.172 29.5329 51.172 29.6777C51.172 29.8226 51.1575 29.9674 51.1285 30.0978C51.0996 30.2281 51.0416 30.344 50.9837 30.4309C50.9258 30.5178 50.8389 30.6047 50.7375 30.6482C50.6506 30.7061 50.5492 30.7351 50.4188 30.7351Z" fill="white"/>
<path d="M54.6192 29.8081C54.7785 29.7501 54.9089 29.6632 55.0103 29.5474C55.1261 29.417 55.1841 29.2577 55.1841 29.0839C55.1841 28.9535 55.1551 28.8377 55.1116 28.7363C55.0537 28.6349 54.9813 28.5625 54.8944 28.5045C54.8075 28.4466 54.7061 28.4031 54.5757 28.3742C54.344 28.3162 54.0833 28.3307 53.8081 28.3452C53.6777 28.3597 53.5619 28.3597 53.4605 28.3597H53.0549V28.6349H53.3881V30.6916H53.0549V30.9668H54.1702V30.6916H53.8515V29.8805H54.1702L54.8944 30.9668H55.5317V30.6916H55.2855L54.6192 29.8081ZM54.6626 29.0839C54.6626 29.2432 54.6192 29.3736 54.5178 29.475C54.4164 29.5763 54.2861 29.6198 54.1123 29.6198H53.866V28.6204C53.895 28.6204 53.924 28.6204 53.9529 28.6059C53.9964 28.6059 54.0398 28.6059 54.1123 28.6059C54.2861 28.6059 54.4309 28.6494 54.5323 28.7218C54.6192 28.7942 54.6626 28.9246 54.6626 29.0839Z" fill="white"/>
<path d="M60.3404 29.6632C60.239 29.6053 60.1231 29.5474 60.0072 29.4894C59.8914 29.446 59.79 29.388 59.6886 29.3301C59.5872 29.2722 59.5148 29.2142 59.4424 29.1563C59.3844 29.0984 59.3555 29.0259 59.3555 28.939C59.3555 28.8232 59.3844 28.7507 59.4713 28.6928C59.5438 28.6349 59.6596 28.6059 59.79 28.6059C59.8769 28.6059 59.9638 28.6059 60.0362 28.6204C60.1086 28.6349 60.1666 28.6349 60.21 28.6638L60.2535 28.7363V29.1563H60.5576V28.4755L60.5287 28.4611C60.4418 28.4176 60.3404 28.3886 60.21 28.3742C60.0941 28.3452 59.9348 28.3452 59.7755 28.3452C59.5003 28.3452 59.283 28.4031 59.1237 28.519C58.9644 28.6349 58.8775 28.8087 58.8775 29.0259C58.8775 29.1708 58.9065 29.3011 58.9789 29.388C59.0513 29.4894 59.1382 29.5618 59.2396 29.6343C59.341 29.7067 59.4568 29.7646 59.5727 29.8081C59.6886 29.8515 59.79 29.9095 59.8914 29.9529C59.9928 29.9964 60.0652 30.0543 60.1231 30.1267C60.1811 30.1847 60.21 30.2571 60.21 30.344C60.21 30.4164 60.1955 30.4743 60.1666 30.5323C60.1376 30.5757 60.0941 30.6192 60.0507 30.6626C59.9928 30.6916 59.9348 30.7206 59.8624 30.735C59.7176 30.764 59.5293 30.764 59.3844 30.735C59.312 30.7206 59.2541 30.6916 59.2251 30.6626L59.1672 30.5902V30.1412H58.863V30.8509L58.8775 30.8654C58.9354 30.9089 59.0368 30.9523 59.1672 30.9813C59.2975 31.0247 59.4424 31.0392 59.6162 31.0392C59.9348 31.0392 60.1955 30.9813 60.3838 30.8509C60.5721 30.7206 60.6735 30.5323 60.6735 30.286C60.6735 30.1412 60.6445 30.0253 60.5721 29.9384C60.5287 29.8081 60.4418 29.7212 60.3404 29.6632Z" fill="white"/>
<path d="M61.9916 29.1853H62.3247V28.6928L62.3826 28.6349H62.9765V30.6916H62.5999V30.9668H63.831V30.6916H63.4544V28.6349H64.0483L64.1062 28.6928V29.1853H64.4393V28.3597H61.9916V29.1853Z" fill="white"/>
<path d="M67.3796 28.6349H67.6838V30.0398C67.6838 30.2716 67.6258 30.4309 67.51 30.5323C67.3941 30.6337 67.2348 30.6771 67.032 30.6771C66.9306 30.6771 66.8292 30.6626 66.7423 30.6482C66.6554 30.6337 66.5975 30.5902 66.5395 30.5468C66.4816 30.5033 66.4381 30.4309 66.4092 30.3585C66.3802 30.2716 66.3657 30.1702 66.3657 30.0543V28.6349H66.6699V28.3597H65.5691V28.6349H65.9022V30.1267C65.9022 30.4164 66.0036 30.6482 66.1919 30.793C66.3802 30.9378 66.6409 31.0103 67.003 31.0103C67.1479 31.0103 67.2927 30.9958 67.4086 30.9523C67.5244 30.9089 67.6403 30.8509 67.7272 30.7785C67.8141 30.7061 67.8865 30.6047 67.93 30.4888C67.9734 30.373 68.0024 30.2281 68.0024 30.0688V28.6349H68.3355V28.3597H67.4086V28.6349H67.3796Z" fill="white"/>
<path d="M71.7103 28.6783C71.5944 28.5625 71.4351 28.4756 71.2613 28.4176C71.0875 28.3597 70.8847 28.3307 70.653 28.3307C70.6095 28.3307 70.5661 28.3307 70.4937 28.3307C70.4357 28.3307 70.3778 28.3307 70.3054 28.3452C70.2474 28.3452 70.175 28.3452 70.1171 28.3597C70.0591 28.3597 70.0012 28.3597 69.9578 28.3597H69.4798V28.6349H69.8129V30.6916H69.4798V30.9668H69.9288C69.9722 30.9668 70.0302 30.9668 70.0881 30.9668L70.2619 30.9813C70.3199 30.9813 70.3778 30.9813 70.4212 30.9958C70.4792 30.9958 70.5226 30.9958 70.5516 30.9958C70.8123 30.9958 71.0296 30.9668 71.2179 30.8944C71.4062 30.822 71.5655 30.7351 71.6813 30.6047C71.7972 30.4744 71.8986 30.3295 71.9565 30.1702C72.0145 30.0109 72.0434 29.8226 72.0434 29.6198C72.0434 29.417 72.0145 29.2287 71.9565 29.0694C71.9276 28.9246 71.8407 28.7797 71.7103 28.6783ZM70.6385 30.7206C70.624 30.7206 70.5951 30.7206 70.5661 30.7206H70.4502C70.4068 30.7206 70.3778 30.7206 70.3343 30.7206C70.3199 30.7206 70.3054 30.7206 70.2909 30.7206V28.6349C70.3199 28.6349 70.3633 28.6349 70.4068 28.6204C70.4647 28.6204 70.5371 28.6204 70.595 28.6204C70.7833 28.6204 70.9282 28.6494 71.0585 28.7073C71.1744 28.7652 71.2758 28.8521 71.3482 28.9535C71.4206 29.0549 71.4641 29.1708 71.4931 29.2867C71.522 29.4025 71.5365 29.5329 71.5365 29.6488C71.5365 29.7936 71.522 29.9384 71.4931 30.0688C71.4641 30.1992 71.4062 30.315 71.3482 30.4164C71.2758 30.5178 71.1889 30.5902 71.073 30.6482C70.9572 30.6916 70.8123 30.7206 70.6385 30.7206Z" fill="white"/>
<path d="M73.4919 28.6349H73.825V30.6916H73.4919V30.9668H74.6216V30.6916H74.303V28.6349H74.6216V28.3597H73.4919V28.6349Z" fill="white"/>
<path d="M78.6192 29.1273C78.5613 28.968 78.4743 28.8232 78.3585 28.6928C78.2426 28.5769 78.0978 28.4755 77.9384 28.4176C77.7791 28.3452 77.5908 28.3162 77.3736 28.3162C77.1708 28.3162 76.9825 28.3452 76.8087 28.4176C76.6494 28.49 76.5045 28.5769 76.3887 28.6928C76.2728 28.8087 76.1859 28.9535 76.1279 29.1273C76.07 29.2867 76.041 29.4749 76.041 29.6632C76.041 29.8515 76.07 30.0398 76.1279 30.1991C76.1859 30.3585 76.2728 30.5033 76.3887 30.6337C76.5045 30.7495 76.6349 30.8509 76.8087 30.9089C76.968 30.9813 77.1563 31.0102 77.3736 31.0102C77.5763 31.0102 77.7646 30.9813 77.9384 30.9089C78.0978 30.8364 78.2426 30.7495 78.3585 30.6337C78.4743 30.5178 78.5613 30.373 78.6192 30.1991C78.6771 30.0398 78.7061 29.8515 78.7061 29.6632C78.7061 29.4749 78.6771 29.2867 78.6192 29.1273ZM77.4025 30.7351C77.2577 30.7351 77.1418 30.7061 77.0259 30.6481C76.9246 30.5902 76.8377 30.5178 76.7652 30.4309C76.6928 30.3295 76.6494 30.2281 76.6059 30.0978C76.5769 29.9674 76.548 29.8226 76.548 29.6777C76.548 29.5329 76.5625 29.388 76.5914 29.2577C76.6204 29.1273 76.6638 29.0115 76.7218 28.9246C76.7797 28.8376 76.8666 28.7507 76.9535 28.7073C77.0549 28.6494 77.1708 28.6204 77.3011 28.6204C77.446 28.6204 77.5763 28.6494 77.6777 28.7073C77.7791 28.7652 77.866 28.8376 77.9384 28.9246C78.0109 29.0259 78.0543 29.1273 78.0978 29.2577C78.1267 29.388 78.1557 29.5329 78.1557 29.6777C78.1557 29.8226 78.1412 29.9674 78.1122 30.0978C78.0833 30.2281 78.0253 30.344 77.9674 30.4309C77.9095 30.5178 77.8226 30.6047 77.7212 30.6481C77.6488 30.7061 77.5329 30.7351 77.4025 30.7351Z" fill="white"/>
</svg>
